<svg xmlns="http://www.w3.org/2000/svg" fill="none" viewBox="0 0 600 600"><g clip-path="url(#devicon-aws-cloudwatch-2-a)"><path fill="url(#devicon-aws-cloudwatch-3-b)" d="M600 0H0v600h600z"/><path fill="#fff" d="M413 350.8c0-29.3-24-53.1-53.6-53.1a53.4 53.4 0 0 0-53.5 53.1 53.4 53.4 0 0 0 107 0m15 0a68.5 68.5 0 0 1-68.6 68.2 68.5 68.5 0 0 1-68.6-68.2 68.5 68.5 0 0 1 68.6-68.1 68.5 68.5 0 0 1 68.6 68.1m63.3 102.8-52.5-47q-6.5 8.9-14.6 16.1l52.4 47a11 11 0 0 0 15.5-.8c4-4.4 3.7-11.3-.8-15.3m-131.9-21.1a82 82 0 0 0 82.2-81.7 82 82 0 0 0-82.2-81.6 82 82 0 0 0-82.2 81.6 82 82 0 0 0 82.2 81.7m144 46.5a26 26 0 0 1-36.8 1.9l-54.6-49a97 97 0 0 1-149.8-81.2 97 97 0 0 1 97.2-96.5 97 97 0 0 1 97.3 96.6c0 15.3-3.7 29.7-10.1 42.6l54.8 49a26 26 0 0 1 2 36.6M159.5 220.4q0 6 .7 11.6a7.5 7.5 0 0 1-6.2 8.3c-18.5 4.7-49 19.1-49 62.3a67 67 0 0 0 33.3 60 34 34 0 0 0 17.8 5H247v15h-91a49 49 0 0 1-25.7-7.3 83 83 0 0 1-40.4-72.7c0-50.1 34.5-68.7 54.8-75.2q-.3-3.4-.3-7c0-41 28-83.4 65-98.7 43.4-18 89.4-9.1 123 23.9q15.7 15.3 25.5 37a49 49 0 0 1 31.1-11.3c22.5 0 47.9 17 52.4 54.2 21.1 4.8 65.7 21.7 65.7 77.7a75 75 0 0 1-21 54.9l-10.8-10.5q16.6-16.9 16.7-44.4c0-49-41.3-61.2-59-64.2a7.5 7.5 0 0 1-6.2-8.6c-2.5-30.4-20.7-44-37.8-44a35 35 0 0 0-27.7 14.2 7.5 7.5 0 0 1-13.1-2q-9.3-25.5-26.5-42.4a95.5 95.5 0 0 0-106.4-20.7c-31.3 13-55.8 50.3-55.8 85"/></g><defs><linearGradient id="devicon-aws-cloudwatch-3-b" x1="0" x2="60000" y1="60000" y2="0" gradientUnits="userSpaceOnUse"><stop stop-color="#B0084D"/><stop offset="1" stop-color="#FF4F8B"/></linearGradient><clipPath id="devicon-aws-cloudwatch-2-a"><path fill="#fff" d="M0 0h600v600H0z"/></clipPath></defs></svg>