<svg xmlns="http://www.w3.org/2000/svg" fill="none" viewBox="0 0 600 600"><path fill="#fff" d="M598 431q-2.4-9-7.5-16.6 1.1-4 1.6-8.2a55 55 0 0 0-15-45.6 52 52 0 0 0-19.7-14A264 264 0 0 0 503.7 118a263 263 0 0 0-67.1-58.2A265.2 265.2 0 0 0 40.8 347.3q-9.4 4-18 13.2a55 55 0 0 0-13.2 53.9Q4.4 422 2 431a54 54 0 0 0 2 35.7 53 53 0 0 0 2.7 41 67 67 0 0 0 19.2 23c9.6 7.6 21.6 14 36.1 20.3a422 422 0 0 0 48 16.8 298 298 0 0 0 72.6 10.7c34.3.3 63.8-7.8 85-28.4a257 257 0 0 0 64.4-.2c21.1 20.8 50.8 29 85.2 28.6a296 296 0 0 0 72.5-10.7c9.7-2.5 30.8-9.4 48-16.8a160 160 0 0 0 36.2-20.3c8-6.4 14.6-13.6 19.2-22.9a53 53 0 0 0 2.7-41 55 55 0 0 0 2-35.8m-24.6 34.8a33 33 0 0 1 .9 29.4c-6.5 14.8-22.7 26.4-54.2 38.8-19.5 7.8-37.4 12.7-37.5 12.8a282 282 0 0 1-69.5 10q-50.4 0-74.3-27.4a249 249 0 0 1-80.8.4q-23.8 27-73.9 27c-20.2 0-43.6-3.3-69.4-10-.2 0-18-5-37.6-12.8-31.4-12.4-47.6-24-54.1-38.8a33 33 0 0 1 2.3-31.9 37 37 0 0 1-5-30.1q3.2-11.1 11.3-17.9-4-6.4-5-14a37 37 0 0 1 10.1-30.4 34 34 0 0 1 25-10.7h.3a246.2 246.2 0 1 1 470 .2l3.5-.2c9.9 0 18.7 3.8 25 10.6a37 37 0 0 1 5.1 44.5 34 34 0 0 1 11.4 17.9 37 37 0 0 1-5 30.1z"/><path fill="#FF9D00" d="M571.8 463.3a37 37 0 0 0 5-30.1q-3.1-11.2-11.4-17.9 4-6.5 5-14a37 37 0 0 0-10-30.5 34 34 0 0 0-28.6-10.4 246.2 246.2 0 1 0-470-.2h-.3c-9.8 0-18.7 3.8-25 10.6a37 37 0 0 0-5 44.5A34 34 0 0 0 20 433.2a37 37 0 0 0 5 30.1l-1.4 2.5a33 33 0 0 0-.9 29.4c6.5 14.7 22.7 26.3 54.1 38.8 19.6 7.8 37.5 12.7 37.6 12.8a282 282 0 0 0 69.5 10q50 0 73.8-27c26.8 4.3 54.1 4.1 80.9-.4q23.8 27.4 74.2 27.5 30.6 0 69.5-10.1c.1 0 18-5 37.6-12.8 31.4-12.4 47.6-24 54.1-38.8a33 33 0 0 0-2.3-31.9m-325.2 38.4-4.4 7q-6.1 8.9-15.7 14c-12 6.5-27 8.7-42.4 8.7-24.3 0-49.1-5.6-63-9.3-.8-.1-85.5-24-74.8-44.5q2.8-5 8.5-4.8c15.1 0 42.6 22.5 54.5 22.5q4 .1 5.2-3.8c5-18.1-76.6-25.7-69.7-51.9q2-6.7 9.2-6.5c20 0 64.8 35.1 74.2 35.1q1 0 1.5-.6l.1-.2c4.4-7.3 1.9-12.6-28.3-31l-2.9-1.8C65.3 414.5 42 402.4 55.3 388q2.3-2.5 6.3-2.4 4.7 0 11 2.8c17.6 7.4 41.8 27.5 52 36.3l4.8 4.2s12.8 13.4 20.6 13.4q2.8.1 4.3-2.5c5.5-9.3-51.2-52.2-54.4-70-2.1-12 1.6-18 8.4-18q5 0 11.5 4.1c13.6 8.6 39.8 53.6 49.3 71 3.2 6 8.7 8.4 13.7 8.4 9.8 0 17.4-9.7.9-22.1-25-18.6-16.2-49-4.3-51h1.5c10.8 0 15.6 18.6 15.6 18.6s14 35 38 59c21.7 21.8 24.8 39.6 12 61.9m77.6 4.1-1.2.2-2.2.2-3.3.3-1.1.1-1 .1-1.4.1-1.6.1-1.5.1h-.4l-1.2.1h-.5l-1.5.1-1.7.1h-3.1l-1 .1h-11l-1.2-.1h-1.5l-1.3-.1h-.4l-1.3-.1h-1l-1-.1-3.1-.2-1.1-.1-1.4-.1-1.6-.2q-1.5 0-2.8-.3c13.3-29.7 6.6-57.4-20.3-84.3a173 173 0 0 1-31.9-49.3c-4.9-17-18-35.8-39.6-35.8q-2.7 0-5.5.5c-9.5 1.5-17.8 7-23.7 15.2a83 83 0 0 0-18.2-17.9 47 47 0 0 0-25.2-8.1 33 33 0 0 0-25.9 11.9l-.2.2-.3-1.5v-.1q-2-7.8-3.1-15.8l-.2-1.3-.3-2-.2-1.5-.2-1.6-.2-1.7-.2-1.5v-.1l-.7-7.1v-1.4l-.2-1.1V300l-.2-1.7v-1.6l-.1-1.5v-1.7l-.1-1.2v-5.6a220.8 220.8 0 0 1 441.5 0v7.8l-.2 3v.3l-.1 1.4v1.2l-.7 8.1-.5 5.1-.2 1.2-.2 1.4-.2 1.5-.2 1.7-.2 1.3-.3 1.6-.2 1.5-.3 1.5-2.1 10.4c-6.2-6-14.4-9.3-23.5-9.3a47 47 0 0 0-25.2 8 83 83 0 0 0-18.2 18 36 36 0 0 0-29.2-15.7c-21.7 0-34.7 18.8-39.7 35.7a174 174 0 0 1-31.8 49.4c-26.9 26.8-33.7 54.4-20.6 84m228-59.5-.1.3-.2.5-1.3 2.4-1.6 2-.4.5-.7.7a60 60 0 0 1-19 11.4l-.7.4-1.6.7-1.6.6-1.7.7-11.5 4.5-1.6.7-1.6.6-3.1 1.3-1.6.6-1.5.6-.8.3-1.4.6c-11.2 4.8-19.2 9.7-17.6 15.8l.2.5a6 6 0 0 0 1.1 1.9c2 2 5.6 1.7 10.2.1l1.1-.4.8-.3.4-.2 3.3-1.5.8-.4c5.6-2.7 12-6.4 18.2-9.7l2.9-1.5q2.3-1.3 4.7-2.4c6-2.8 11.5-4.8 16-4.8q3.2 0 5.5 1.5l.3.1q1.2 1 2 2l.4.6.4.6c2.2 4.2.3 8.6-4 12.9a75 75 0 0 1-19.7 12.6 354 354 0 0 1-51 19c-7.7 2-18.7 4.6-31 6.6l-1.8.3h-.3l-8.5 1.1h-.2q-7.7.9-15.6 1.2h-.1l-5.7.1H411q-4.4 0-8.7-.4h-.2l-8.3-1-2.1-.3-1-.2-3-.6-1.8-.5h-.4l-.8-.3h-.1l-1-.3-1-.3-.9-.3-1-.3-.7-.2-.6-.2-1.7-.6-.5-.2-.4-.2-2.5-1-.5-.3-.7-.3-1-.6h-.2l-.5-.3q-1.5-.7-2.8-1.6l-.5-.3-.8-.5-.6-.4-.7-.5-.4-.3-1.4-1-.6-.5-1.5-1.2-1.4-1.3-.7-.7-.7-.7-1.2-1.4h-.1l-3-3.9-.3-.5-.7-1-.7-1.1-1.7-2.7-.6-1-.2-.5-.4-.6-.1-.2-.1-.2-.6-1-.3-.6-.2-.5-.3-.5-.5-1-.7-1.5-.2-.5-.6-1.4-.4-1-1-3-.4-.8a34 34 0 0 1-1.5-7.2l-.3-2.8v-1.4c-.2-12.4 6.1-24.4 19.6-37.9 24-24 38-59 38-59s.3-1.5 1-3.6l2-4.4v-.2l1.7-2.8.4-.7 2.5-3.1q2.1-2.3 4.8-3.3h.2l1-.3 1.2-.2h.7l1.5.1q3.3.6 6 3.6l.3.3a17 17 0 0 1 2.5 4l.4.7.1.4.4.8a29 29 0 0 1 2 12.6v1q-.4 5.1-2.3 10l-.4 1a36 36 0 0 1-3.7 6.7l-.3.5a40 40 0 0 1-9.2 9.3 40 40 0 0 0-5 4.3c-4.3 4.6-5.4 8.7-4.4 11.8l.4 1 1.4 2h.2l.5.5.2.2 1.3.8.4.2q1 .6 2 .8h.2l.3.1h.2l.3.1.2.1h.2l.5.1h.7l.3.1h2.9l.3-.1a15 15 0 0 0 8-3.8l.4-.4.2-.2a15 15 0 0 0 2.8-3.8 663 663 0 0 1 17.9-30.6l.9-1.4.8-1.4 1.3-2 .5-.7.8-1.4 3.6-5.4.9-1.3 5.3-7.7.9-1.2q2.8-4 6-7.7l.8-1 .4-.5.8-1 .4-.4.8-.9.4-.4 1.1-1.2.8-.8q2.2-2.2 4.8-4l.4-.3.5-.2.8-.5c6.8-4 12.5-4.2 15.8-1q3 3 3 10v2.2l-.1.7v.2l-.1.6v.2l-.3 1.6v.4l-.3 1.3-1.3 3-1 2-.7 1-.3.6-4 5.4-.4.6-4 4.7-1 1.2-.5.6-2.3 2.5-.6.6-1.1 1.3-1.2 1.2-1.2 1.3-1.2 1.3-1.2 1.2-2.5 2.6c-11.8 12.1-24.3 24.2-28.5 31.7l-.7 1.5a6 6 0 0 0-.7 3.5l.3.9 1.3 1.6q1.5.9 3 .9h.7l.3-.1h.4l.3-.1.4-.1.4-.1.3-.1 2.3-.9.4-.2.4-.2 2.7-1.6.4-.2.4-.3.4-.2.2-.2.5-.4 1.5-1v-.1l.9-.6 3-2.5.6-.6.3-.3 2-1.8.3-.2.5-.6.3-.3h.1v-.1l.6-.6.2-.1v-.1h.1l.1-.2.6-.5.4-.3.5-.4.4-.4.2-.2.4-.3.6-.6.4-.3 4.5-3.9.8-.6 1.2-1 1.2-1 5.1-4.3 1.2-1 15.4-11.5 1.1-.8 2.4-1.6.7-.5 4.2-2.8.7-.4.7-.4 2.1-1.3.7-.4 1.4-.8 1.4-.8.3-.2 1-.6 1.4-.7.7-.3.6-.4 4.5-2 .7-.3 2.4-.9 1-.3h.1l.6-.2 1.1-.3 1.7-.3.5-.1 2.5-.2h1.2l.4.1h.5l.4.1.4.2q1.7.4 3 1.6l.2.2.2.2a16 16 0 0 1 2.8 4.1l.2.3.5 1.8q.6 2.6-.3 5.2l-.9 2.1-.2.4q-1.4 2.4-3.2 4.3l-.3.2-2.4 2.4-.3.2-2 1.7-.3.3a78 78 0 0 1-9.9 7l-6.2 4-1.9 1.2-18.8 11.4-1.8 1-5.4 3.4-.9.5-1.6 1-3.3 2.2-.8.5-1.3.9-.4.2-1.2.9-.7.4-.8.6-.7.5-3.4 2.4-.4.3-1.3 1-.5.5-2.5 2-.3.4-.6.5-.4.4-.2.2-1.2 1.3-.2.2-1.2 1.5-.1.2-1 1.7-.1.2v.2l-.1.1v.2l-.2.2-.2 1.1v.4l-.1.2v1.5l.1.3v.3l.2.3q0 .6.3 1l.1.3.5 1 .2.3.2.4.2.3.1.1v.1h.1l.1.1.2.1.2.1h.2c1.7.5 5.1-1 9.7-3.4l.8-.4 1.4-.8.7-.3 1.5-.9 1-.5 20.7-12.4 2.1-1.2 1.5-.9a190 190 0 0 1 11.2-6.1l1.4-.7 8-3.7 1-.4h.1q7.9-3.3 13.7-3.4l2.4.2.8.2 1.8.7a7 7 0 0 1 3.6 3.8l.5 1.6q1 3.4-.1 6.8"/><path fill="#FFD21E" d="M517.6 288v-1.4a220.8 220.8 0 1 0-441.6 0v6.8l.1 1.3v.4l.1 1.4v1.7l.3 3.2v1.5l.2 1.3v.8l.7 6.3v.1l.1 1.5.2 1.7.8 5.1v.1a185 185 0 0 0 3.2 17l.1.5.3 1 .2-.1a33 33 0 0 1 25.9-11.9 47 47 0 0 1 25.1 8.1 83 83 0 0 1 18.3 17.9 36 36 0 0 1 29.2-15.6c21.6 0 34.7 18.8 39.6 35.7 2.4 5.7 14.2 31.7 31.9 49.3 26.9 26.9 33.6 54.6 20.3 84.3l4.4.5h1.4l1.1.2 3.2.2h1.5l.4.1h1.7l1.3.2h4l5.2.1h8.6l1.7-.2h2l.8-.1h.8l1.5-.2h1.6l1.4-.2h1l1.1-.2 5.5-.5 1.2-.2c-13-29.6-6.3-57.2 20.5-84a174 174 0 0 0 31.8-49.3c5-17 18-35.8 39.7-35.8a35 35 0 0 1 29.2 15.7c6.4-8 12.6-14.3 18.2-17.9a47 47 0 0 1 25.2-8.1c9 0 17.3 3.3 23.5 9.3l2.6-13.4v-.2l.3-1.3.2-1.4.2-1.7.2-1.2v-.3l.2-1.4.2-1.2.2-2.3.1-1v-.2l.2-1.6.1-1.2.6-8 .1-1.5V296l.1-1.5V293l.1-1zM242 508.6c17.4-25.6 16.2-44.9-7.8-68.9s-38-59-38-59-5.2-20.4-17-18.5c-12 1.8-20.7 32.3 4.2 50.9 25 18.6-5 31.3-14.5 13.8s-35.7-62.5-49.3-71-23-3.8-19.9 13.9c1.6 8.8 16.4 23.8 30.2 37.8 14 14.2 27 27.5 24.2 32.1-5.5 9.3-25-10.9-25-10.9s-60.8-55.3-74-41c-12.2 13.4 6.6 24.7 35.6 42l7.6 4.7c33.2 20 35.8 25.4 31 33-1.7 2.8-12.8-4-26.4-12.1-23.3-14-54-32.4-58.4-16-3.7 14.3 18.9 23.1 39.3 31 17.1 6.6 32.7 12.7 30.4 20.9-2.4 8.5-15.3 1.4-29.4-6.3-15.8-8.8-33.2-18.3-38.8-7.5-10.8 20.3 74 44.3 74.7 44.5 27.4 7 97 22.1 121.2-13.5zm112.6 0c-17.5-25.6-16.3-44.9 7.7-68.9s38-59 38-59 5.2-20.4 17-18.5c12 1.8 20.7 32.3-4.2 50.9s5 31.3 14.5 13.8 35.8-62.5 49.3-71 23.1-3.8 20 13.9c-1.7 8.8-16.4 23.8-30.2 37.8-14 14.3-27 27.5-24.3 32.1 5.6 9.3 25-10.9 25-10.9s60.8-55.3 74-41c12.3 13.4-6.6 24.7-35.6 42.1l-7.6 4.6c-33.2 20-35.8 25.4-31 33 1.7 2.8 12.8-3.9 26.5-12.1 23.3-14 54-32.4 58.3-16 3.8 14.4-18.8 23.1-39.3 31-17 6.7-32.7 12.7-30.4 21s15.3 1.3 29.4-6.4c15.8-8.7 33.2-18.3 38.8-7.5 10.8 20.4-74 44.3-74.7 44.5-27.4 7.1-97 22.2-121.2-13.5z"/><path fill="#32343D" d="M368.7 226.5c3.4 1.2 6 5 8.4 8.4 3.3 4.8 6.4 9.3 11 6.8a31.7 31.7 0 1 0-42.9-13.2c2.2 4.1 7 2.2 12.1.1 4-1.6 8.2-3.2 11.4-2.1m-149.7 0c-3.4 1.2-6 5-8.4 8.5-3.3 4.7-6.4 9.2-11 6.7a31.8 31.8 0 1 1 42.9-13.2c-2.2 4.1-7 2.2-12.1.1-4-1.6-8.2-3.2-11.4-2.1m126.5 136.2a91 91 0 0 0 32.5-68c0-14.9-10-10.2-26-2.3l-1 .5c-14.6 7.3-34.2 17-55.6 17-21.5 0-41-9.7-55.7-17-16.6-8.2-27-13.3-27 1.8 0 19.4 9.3 51.2 34.8 69.7a55 55 0 0 1 33.7-28.5c2.6-.7 5.2 3.6 7.9 8.1 2.5 4.3 5.2 8.7 7.9 8.7s5.6-4.3 8.4-8.6c2.9-4.4 5.7-8.7 8.4-7.9a55 55 0 0 1 31.7 26.5"/><path fill="#FF323D" d="M345.4 362.8a79 79 0 0 1-50.2 16.3 79 79 0 0 1-47.8-14.6A55 55 0 0 1 281 336c5-1.5 10.3 16.8 15.7 16.8 5.9 0 11.5-18.2 16.8-16.5a55 55 0 0 1 31.8 26.5"/><path fill="#FFAD03" d="M162.2 253a20.6 20.6 0 1 1-23-34.3 20.6 20.6 0 0 1 23 34.3m295.4 0a20.6 20.6 0 1 1-23-34.3 20.6 20.6 0 0 1 23 34.3"/></svg>