<svg xmlns="http://www.w3.org/2000/svg" fill="none" viewBox="0 0 600 600"><g clip-path="url(#devicon-langchain-1-a)"><path fill="#7FC8FF" d="M188.3 399.4a188.4 188.4 0 0 0 0-266.3L55.2 0a188.4 188.4 0 0 0 0 266.3zm278.6 12.3a188.4 188.4 0 0 0-266.3 0L333.7 545a188.4 188.4 0 0 0 266.3 0zM55.5 544.5a188 188 0 0 0 133.1 55.2V411.4H.3a188 188 0 0 0 55.2 133.1M518.3 215a188.3 188.3 0 0 0-266.3 0l133 133.1z"/></g><defs><clipPath id="devicon-langchain-1-a"><path fill="#fff" d="M0 0h600v600H0z"/></clipPath></defs></svg>