<svg xmlns="http://www.w3.org/2000/svg" width="600" height="600" fill="none" viewBox="0 0 600 600"><path fill="currentColor" fill-rule="evenodd" d="M152.5 150h295c84.1 0 152.5 67.3 152.5 150s-68.4 150-152.5 150h-295C68.4 450 0 382.7 0 300s68.4-150 152.5-150M288 382.5c3.6 3.9 9.1 3.6 14 2.6 2.3-1.7-1-4-4-6.2-1.8-1.3-3.6-2.5-4.1-3.6 1.7-2-3.3-6.7-7.2-10.2l-3.8-3.7c-2.7-3-3.9-6.7-5-10.5q-1-3.8-2.7-7.3a203 203 0 0 0-28.6-49.2 316 316 0 0 0-25.8-27.3 484 484 0 0 1-17.1-17.2c-5.7-5.7-9-12.8-12.5-19.8-2.8-6-5.7-11.9-9.9-17-12.7-18.4-52.7-23.4-58.6 2.6q.1 1.1-1 1.8-4.8 3.4-8.5 8.2c-6 8.1-6.8 21.9.6 29.2v-.5c.3-3.7.5-7.1 3.5-9.7 5.7 4.8 14.4 6.5 21 2.9 8 11.2 10.5 24.8 13.1 38.5 2.2 11.4 4.3 22.8 9.6 32.9l.3.5a95 95 0 0 0 10.3 14.7 39 39 0 0 0 7.4 7c4 3.1 7.8 6.2 8.2 9v3.5c0 7.2 0 14.5 4.6 20.4 2.6 5-3.7 10.2-8.8 9.6-2.8.4-5.8-.4-8.8-1-4.1-1-8.2-2-11.6-.1-1 1-2.2 1-3.6 1-1.6 0-3.2.1-4.2 1.8q-.3.7-1.1 1.5c-1 1.3-2.2 2.7-.8 3.7l.3-.3c2.1-1.5 4-3 6.8-2-.3 2 1 2.5 2.3 3l.7.3-.2 1.4c-.2 1.1-.5 2.2.4 3.2l1.2-1.4c.9-1.1 1.8-2.3 3.4-2.7 3.6 4.7 7.3 2.8 11.8.3 5.2-2.8 11.5-6.2 20.3-1.4-3.4-.1-6.4.3-8.7 3-.5.6-1 1.3 0 2.1 5.2-3.3 7.4-2.1 9.4-1 1.5.8 2.8 1.6 5.3.6l1.7-.9c3.9-2 7.9-4.1 12.5-3.4-3.5 1-4.7 3.1-6 5.5q-1 1.7-2.4 3.5-.9.7-.2 2c7.3-.6 10-2.4 13.7-4.8q2.6-1.8 6.6-3.9c3-1.9 6.1-.7 9.1.5 3.3 1.3 6.4 2.4 9.3-.3 1-.9 2.1-.9 3.3-.9h1.2c-1-4.8-6-4.7-11.2-4.7-6 0-12 .1-11.9-7.2 5.6-3.7 5.6-10.2 5.7-16.3l.1-4.3q6.1 3.2 12.7 5.7 6 2.4 11.8 5.3c4 6.2 10.2 14.4 18.4 13.9l.6-1.8 1.5.3c2.1.5 4.4 1.1 5.6-1.4m160.7-70.7a25.6 25.6 0 0 0 41.3-8 24.5 24.5 0 0 0-18.2-33.8q-7.4-1.5-14.3 1.2L443 250.4l-10.1 6.8 14.5 20.9a24.5 24.5 0 0 0 1.3 33.7m-45.4-67.3a26 26 0 0 0 26.3-2.3q6.6-5 9.1-12.7a24 24 0 0 0-10.1-27.7 26 26 0 0 0-32.5 3.5 25 25 0 0 0-6.6 21.4 25 25 0 0 0 13.8 17.8m0 143.8a26 26 0 0 0 26.3-2.4 24.2 24.2 0 0 0-1-40.4 26 26 0 0 0-32.5 3.6 25 25 0 0 0-1.9 31.9 25 25 0 0 0 9 7.3m23.2-87.9v-12.3h-38.7q-1.5-5.7-5.5-10l14.6-21.2-10.6-7-14.6 21.2a25.6 25.6 0 0 0-31.6 13.7 24.3 24.3 0 0 0 17.7 33.5q7 1.5 14-.9l14.5 21.2 10.5-6.9-14.5-21.2q4-4.4 5.4-10z" clip-rule="evenodd"/></svg>