<svg xmlns="http://www.w3.org/2000/svg" fill="none" viewBox="0 0 600 600"><path fill="#000" d="M499.7 6.5H97.4A94 94 0 0 0 3.2 100v399.8a94 94 0 0 0 94.2 93.6h402.3A94 94 0 0 0 594 500V100.1a94 94 0 0 0-94.2-93.7"/><path fill="url(#devicon-llamaindex-icon-1-a)" d="M451.9 512.7s26-43-35-73.8c0 0 11.9 46-15.7 88.6h-28.4s-1.3-9 10.7-13.5c25.1-9.6 26.1-50.4 18.8-55.3-22.4-15-31.3-27.7-25.5-60.2 0 0-38.8 14-87 8a6 6 0 0 0-6.2 3 124 124 0 0 1-16.3 21.7s-2.2 25.4-8 43.5c0 0 2.2 31-5.7 52.7h-34s.5-13.5 16.8-15.2c20-2.1-3.6-63.6-3.6-63.6s-1 33.5-21.3 78.7h-26s0-13 13.2-16.3c21.4-5.3 11.9-43.4 8.5-64.7-3.5-21.2-8.3-61-25.8-83-17.6-22.1-26.5-22-27.5-62.5 0 0-15-23.3-9.6-54 0 0-11-36.7 5.6-91.2 0 0-39.4-8-40.2-17.6s2.1-20.7 12.7-21.7 26-2.4 26-13.5-13.4-25.6-5-29.9C151 69 160 95 166 91c4-2.9-10.5-17-1-15 3.9.8 36.9 11.7 48 68.8s6.6 95.2 22.7 95.2 89.8-2.7 132.9 7.8c43 10.4 44.8 26.8 63.7 22s40.6-16 52.9 25.5c10.8 36.5-19.7 31.9-19.7 43.3s-4 29.2.6 40 2 37 6.2 51.8 9 28.2-.3 47.3c0 0 4.5 32.1-5.7 49.8H442s-1.8-10 10.1-14.8z"/><defs><linearGradient id="devicon-llamaindex-icon-1-a" x1="91.9" x2="443.9" y1="85" y2="559.5" gradientUnits="userSpaceOnUse"><stop stop-color="#37d7fa"/><stop offset=".4" stop-color="#4b72fe"/><stop offset=".7" stop-color="#ff8df2"/><stop offset="1" stop-color="#ff8705"/></linearGradient></defs></svg>