<svg xmlns="http://www.w3.org/2000/svg" fill="none" viewBox="0 0 600 600"><path fill="#201D1E" d="M259.6 531.3a34.3 34.3 0 1 1 0 68.7 34.3 34.3 0 0 1 0-68.7M450 468.7l34 10-27 91a18 18 0 0 1-18.1 12.6l-8.3-.6-.3.2-86.4-6.1 2.4-35.3 58 4-38-55 29.2-20 38 54.8zM80.8 405.9l35.3 2.5-4.2 58 54.8-38 20.2 29-54.8 38.1 56 16.5-10 34-91.4-27c-8-2.3-13.3-9.9-12.7-18.2zm227.9-49.5 63.7 77-28.7 23.7-38-45.8-12.2 70.4-36.8-6.4 12.3-70.5-51 30.1-19-32.1 85.9-50.6c7.8-4.6 18-2.8 23.8 4.2m178.2-51.6 31.8-17.3 46.4 85.2c4 7.5 2.4 16.8-4 22.3l-6.6 5.7-67 58.2-23.7-27.3 45-39.1-67-12.1 6.4-35.7 67 12.1zm-375.3-89 24 27L91.2 282l67.1 11.7-6.2 35.7L85 317.7l28.9 52.2L82 387.4l-47-85.1a18 18 0 0 1 3.8-22.4zm227-28.1 63.5 76.7-28.7 23.8-38-45.8-12.2 70.4-36.8-6.4 12.3-70.3-50.9 29.9-18.8-32.2 78-45.8v-.3h.4l7.3-4.2c7.9-4.6 18-2.8 23.8 4.2m81.8-37.7 13.9-33.5 89.8 37.3a18 18 0 0 1 11 19.9l-1.6 8.3-15.3 87.2-35.7-6.3 10.3-58.4-59.6 33-17.5-31.8 59.7-33zm-171-66 1.5 36.2-59.3 2.6 44.8 51.1-27.3 23.9-44.8-51.3-10.5 58.5-35.6-6.4 17-95.5a18 18 0 0 1 17.1-15l8.4-.3.2-.1zM370.7 6.8 433.9 84 405 107.6l-37.5-45.8-12.6 70.3-36.7-6.6 12.6-70.4-51.2 30-18.8-32.3 86-50.3c8-4.6 18-2.8 23.9 4.3"/></svg>